# xmcd CD database file
#
# Track frame offsets:
#	187
#	21112
#	38062
#	55587
#	74550
#	98712
#	118875
#	139737
#	158062
#	177712
#	196962
#	217387
#	233712
#	254087
#	276812
#	293737
#	309250
#	323950
#
# Disc length: 4560 seconds
#
# Revision: 0
# Processed by: cddbd v1.5.1PL0 Copyright (c) Steve Scherf et al.
# Submitted via: CDex 1.51
#
DISCID=1511ce12
DTITLE=Various Artist - Champion Carnival September 1996
DYEAR=1996
DGENRE=Top 40
TTITLE0=Gary Barlow -  Forever Love
TTITLE1=Deni Hines - It's Alright
TTITLE2=Los Del Rio - Macarena
TTITLE3=Sandalo - La Senal
TTITLE4=ZZ Top - What's Up With That
TTITLE5=Whitney Houston - All At Once
TTITLE6=Whitney Houston - Hurt So Bad
TTITLE7=Robert Miles - Children
TTITLE8=112 - Only You
TTITLE9=Delinquent Habits - Tres Delinquentes
TTITLE10=No Mercy - Where Do You Go
TTITLE11=Peter Andre - Mysterious Girtl
TTITLE12=Ivan Matias - I've Had Enough
TTITLE13=Republica - Ready To Go
TTITLE14=The Freewheelers - Mother Nature Lady
TTITLE15=Kinfolk - Players
TTITLE16=Legacy Of Sound Featuring Meja - Woman In Me
TTITLE17=Japan - Life In Tokyo
EXTD=YEAR: 1996
EXTT0=
EXTT1=
EXTT2=
EXTT3=
EXTT4=
EXTT5=
EXTT6=
EXTT7=
EXTT8=
EXTT9=
EXTT10=
EXTT11=
EXTT12=
EXTT13=
EXTT14=
EXTT15=
EXTT16=
EXTT17=
PLAYORDER=
